<svg xmlns="http://www.w3.org/2000/svg" width="153.054" height="230.5" viewBox="0 0 153.054 230.5">
  <g id="_01" data-name="01" transform="translate(-7.471 -3.075)" opacity="0.2">
    <path id="Path_449" data-name="Path 449" d="M27.72,208.4a68.732,68.732,0,0,0,26.364,18.964,91.028,91.028,0,0,0,15.171,4.625,74,74,0,0,0,70.119-22.756,80.2,80.2,0,0,0,17.761-77.335A676.118,676.118,0,0,0,93.584,7.01,9.251,9.251,0,0,0,77.118,9.785,247.916,247.916,0,0,1,46.036,72.134c-5,7.956-10.268,16.281-15.911,26.087q-5.18,9.251-10.916,18.5a74,74,0,0,0-9.251,59.019A86.4,86.4,0,0,0,27.72,208.4Zm7.308-81.96Q40.994,117,46.406,107.287c5.365-9.251,10.546-17.576,15.448-25.254A300.274,300.274,0,0,0,88.219,33.374a658.731,658.731,0,0,1,51.156,104.162,60.869,60.869,0,0,1-13.691,59.111,54.764,54.764,0,0,1-52.636,17.206,72.434,72.434,0,0,1-12.118-3.7,50.231,50.231,0,0,1-19.149-13.506,68.084,68.084,0,0,1-14.153-25.809,55.5,55.5,0,0,1,7.4-44.4Zm14.338,23.959a9.251,9.251,0,0,1,9.251-9.251h18.5v-18.5a9.251,9.251,0,1,1,18.5,0v18.5h18.5a9.251,9.251,0,1,1,0,18.5h-18.5v18.5a9.251,9.251,0,1,1-18.5,0v-18.5h-18.5A9.251,9.251,0,0,1,49.366,150.394Z" transform="translate(0)" fill="#00b89f"/>
  </g>
</svg>
