<svg xmlns="http://www.w3.org/2000/svg" width="259.335" height="195.094" viewBox="0 0 259.335 195.094"><g transform="translate(1 1)" opacity="0.2"><path d="M253.314,108.522H179.68L160.569,58.828a4.021,4.021,0,0,0-7.676.539l-11.339,49.155h-10.1L120.373,78.964a4.021,4.021,0,0,0-7.64.277L96.448,134.609,76.227,67.159a4.021,4.021,0,0,0-7.511-.511L49.682,108.522h-4.62c-10.108-15.81-16.916-32.356-16.916-48.25,0-27.4,25.762-44.229,44.229-44.229,19.7,0,44.053,11.544,52.541,33.61a4.021,4.021,0,0,0,7.5,0c8.488-22.066,32.838-33.61,52.541-33.61,18.468,0,44.229,16.827,44.229,44.229A79.175,79.175,0,0,1,220.11,94.69a4.028,4.028,0,0,0,7.238,3.538,87.064,87.064,0,0,0,9.883-37.957C237.231,26.613,206.322,8,184.96,8c-19.473,0-44.024,9.735-56.292,30.912C116.4,17.735,91.849,8,72.375,8,51.013,8,20.1,26.613,20.1,60.271c0,14.877,5.227,31.029,15.476,48.25H4.021a4.021,4.021,0,0,0,0,8.042H40.659a267.761,267.761,0,0,0,32.895,39.031,435.645,435.645,0,0,0,52.826,44.692,4.021,4.021,0,0,0,4.576,0c2.272-1.572,55.267-38.556,85.644-83.722h36.714a4.021,4.021,0,0,0,0-8.042ZM128.668,192.039c-10.161-7.374-51.728-38.693-78.121-75.476h1.725a4.021,4.021,0,0,0,3.659-2.356L71.612,79.728l21.045,70.156a4.021,4.021,0,0,0,3.844,2.867h0a4.021,4.021,0,0,0,3.844-2.887l16.711-56.807,7.833,20.908a4.021,4.021,0,0,0,3.78,2.6h16.083a4.021,4.021,0,0,0,3.92-3.116l9.107-39.469,15.384,40.008a4.021,4.021,0,0,0,3.756,2.577H206.8C180.444,153.354,138.836,184.673,128.668,192.039Z" transform="translate(0 -8)" fill="#00b89f" stroke="#00b89f" stroke-width="2"/><path d="M53.794,13.167a4.021,4.021,0,1,0-3.378,7.294c4.17,1.934,17.772,9.481,17.772,25.488a4.021,4.021,0,0,0,8.042,0A36.152,36.152,0,0,0,53.794,13.167Z" transform="translate(144.917 6.322)" fill="#00b89f" stroke="#00b89f" stroke-width="2"/><rect width="7.059" height="7.059" transform="translate(181.609 15.324)" fill="#00b89f" stroke="#00b89f" stroke-width="2"/></g></svg>