<svg xmlns="http://www.w3.org/2000/svg" width="22.02" height="24.539" viewBox="0 0 22.02 24.539"><g transform="translate(0.1 0.13)"><g transform="translate(4.131 2.701)"><path d="M21.277,15.811H6.13a.5.5,0,0,1-.53-.53V3.63a.5.5,0,0,1,.53-.53H21.383a.5.5,0,0,1,.53.53V15.281A.671.671,0,0,1,21.277,15.811ZM6.659,14.752H20.853V4.159H6.659Z" transform="translate(-5.6 -3.1)" fill="#afafaf" stroke="#afafaf" stroke-width="0.2"/></g><g transform="translate(0 0)"><path d="M5.3,24.86a3.571,3.571,0,0,1-1.8-.53,3.6,3.6,0,0,1-1.8-3.178V4.2A3.832,3.832,0,0,1,3.5,1.027a3.843,3.843,0,0,1,3.707,0l3.919,2.224a.583.583,0,0,1,.318.53.5.5,0,0,1-.53.53H6.89V14.9H21.614a.7.7,0,0,1,.53.424.509.509,0,0,1-.212.636L7.1,24.33A3.571,3.571,0,0,1,5.3,24.86Zm0-23.3a2.516,2.516,0,0,0-1.271.318A2.549,2.549,0,0,0,2.653,4.2V21.152a2.911,2.911,0,0,0,1.271,2.33,2.917,2.917,0,0,0,2.648,0L19.6,15.962H6.361a.5.5,0,0,1-.53-.53V3.781a.5.5,0,0,1,.53-.53H8.9L6.573,1.874A2.82,2.82,0,0,0,5.3,1.556Z" transform="translate(-1.7 -0.55)" fill="#afafaf" stroke="#afafaf" stroke-width="0.2"/><g transform="translate(19.278 8.871)"><path d="M20.43,15.466c-.106,0-.212,0-.212-.106a.568.568,0,0,1-.318-.424V9.428A.55.55,0,0,1,20.112,9a.481.481,0,0,1,.53,0,3.6,3.6,0,0,1,1.8,3.178,3.832,3.832,0,0,1-1.8,3.178C20.641,15.466,20.536,15.466,20.43,15.466Zm.53-4.873v3.178a2.6,2.6,0,0,0,.53-1.589A2.854,2.854,0,0,0,20.959,10.593Z" transform="translate(-19.9 -8.925)" fill="#afafaf" stroke="#afafaf" stroke-width="0.2"/></g></g><g transform="translate(6.673 4.714)"><path d="M9.377,6.483H8.53A.5.5,0,0,1,8,5.953V5.53A.5.5,0,0,1,8.53,5h.847a.5.5,0,0,1,.53.53v.424A.567.567,0,0,1,9.377,6.483Z" transform="translate(-8 -5)" fill="#afafaf" stroke="#afafaf" stroke-width="0.2"/><g transform="translate(0 2.436)"><path d="M9.377,8.783H8.53A.567.567,0,0,1,8,8.253V7.83a.5.5,0,0,1,.53-.53h.847a.5.5,0,0,1,.53.53v.424A.68.68,0,0,1,9.377,8.783Z" transform="translate(-8 -7.3)" fill="#afafaf" stroke="#afafaf" stroke-width="0.2"/></g><g transform="translate(0 4.767)"><path d="M9.377,10.983H8.53a.5.5,0,0,1-.53-.53V10.03a.5.5,0,0,1,.53-.53h.847a.5.5,0,0,1,.53.53v.424A.567.567,0,0,1,9.377,10.983Z" transform="translate(-8 -9.5)" fill="#afafaf" stroke="#afafaf" stroke-width="0.2"/></g><g transform="translate(0 7.097)"><path d="M9.377,13.183H8.53a.5.5,0,0,1-.53-.53V12.23a.5.5,0,0,1,.53-.53h.847a.5.5,0,0,1,.53.53v.424A.567.567,0,0,1,9.377,13.183Z" transform="translate(-8 -11.7)" fill="#afafaf" stroke="#afafaf" stroke-width="0.2"/></g><g transform="translate(9.215)"><path d="M18.077,6.483H17.23a.5.5,0,0,1-.53-.53V5.53A.567.567,0,0,1,17.23,5h.847a.5.5,0,0,1,.53.53v.424A.5.5,0,0,1,18.077,6.483Z" transform="translate(-16.7 -5)" fill="#afafaf" stroke="#afafaf" stroke-width="0.2"/><g transform="translate(0 2.436)"><path d="M18.077,8.783H17.23a.5.5,0,0,1-.53-.53V7.83a.5.5,0,0,1,.53-.53h.847a.5.5,0,0,1,.53.53v.424A.567.567,0,0,1,18.077,8.783Z" transform="translate(-16.7 -7.3)" fill="#afafaf" stroke="#afafaf" stroke-width="0.2"/></g><g transform="translate(0 4.767)"><path d="M18.077,10.983H17.23a.5.5,0,0,1-.53-.53V10.03a.5.5,0,0,1,.53-.53h.847a.5.5,0,0,1,.53.53v.424A.5.5,0,0,1,18.077,10.983Z" transform="translate(-16.7 -9.5)" fill="#afafaf" stroke="#afafaf" stroke-width="0.2"/></g><g transform="translate(0 7.097)"><path d="M18.077,13.183H17.23a.5.5,0,0,1-.53-.53V12.23a.5.5,0,0,1,.53-.53h.847a.5.5,0,0,1,.53.53v.424A.5.5,0,0,1,18.077,13.183Z" transform="translate(-16.7 -11.7)" fill="#afafaf" stroke="#afafaf" stroke-width="0.2"/></g></g></g></g></svg>