<svg xmlns="http://www.w3.org/2000/svg" width="30.045" height="26.289" viewBox="0 0 30.045 26.289">
  <g id="bubble" transform="translate(0 -2)">
    <path id="Path_848" data-name="Path 848" d="M15.328,7C9.729,7,5,10.01,5,13.572a.469.469,0,0,0,.939,0c0-3,4.387-5.633,9.389-5.633a.469.469,0,1,0,0-.939Z" transform="translate(-0.305 -0.305)" fill="#00b89f" fill-rule="evenodd"/>
    <path id="Path_849" data-name="Path 849" d="M15.022,2C6.725,2,0,7.045,0,13.267c0,3.875,2.609,7.292,6.58,9.32,0,.025-.008.042-.008.069,0,1.683-1.257,3.5-1.81,4.447h0a.85.85,0,0,0,.781,1.187c.088,0,.243-.023.239-.013,2.934-.481,5.7-3.176,6.34-3.957a19.886,19.886,0,0,0,2.9.215c8.3,0,15.022-5.045,15.022-11.267S23.319,2,15.022,2Zm0,20.656a18.235,18.235,0,0,1-2.625-.194,1.668,1.668,0,0,0-.272-.02,1.879,1.879,0,0,0-1.452.685,12.613,12.613,0,0,1-2.9,2.384,7.351,7.351,0,0,0,.672-2.753c.006-.06.008-.121.008-.173a1.877,1.877,0,0,0-1.023-1.672c-3.48-1.776-5.556-4.635-5.556-7.646,0-5.177,5.9-9.389,13.145-9.389S28.167,8.09,28.167,13.267,22.27,22.656,15.022,22.656Z" fill="#00b89f" fill-rule="evenodd"/>
  </g>
</svg>
