<svg xmlns="http://www.w3.org/2000/svg" xmlns:xlink="http://www.w3.org/1999/xlink" width="288.196" height="205.656" viewBox="0 0 288.196 205.656">
  <defs>
    <filter id="Path_850">
      <feOffset dy="3" input="SourceAlpha"/>
      <feGaussianBlur stdDeviation="3" result="blur"/>
      <feFlood flood-opacity="0.161" result="color"/>
      <feComposite operator="out" in="SourceGraphic" in2="blur"/>
      <feComposite operator="in" in="color"/>
      <feComposite operator="in" in2="SourceGraphic"/>
    </filter>
  </defs>
  <g id="_4944894_bath_bathroom_interiors_pedestal_tub_icon" data-name="4944894_bath_bathroom_interiors_pedestal_tub_icon" transform="translate(-1.253 -7.65)" opacity="0.2">
    <g data-type="innerShadowGroup">
      <path id="Path_850-2" data-name="Path 850" d="M285.73,83.8H27.24a37.2,37.2,0,0,1-11.482-9.937,36.856,36.856,0,0,1,57.05-46.608c-.459.517-1,.944-1.409,1.513a22.61,22.61,0,0,0-2,23.372,3.212,3.212,0,0,0,2.237,1.733,2.884,2.884,0,0,0,.666.078,3.218,3.218,0,0,0,2.082-.763l28.874-24.3a3.235,3.235,0,0,0-.175-5.088A22.2,22.2,0,0,0,77.851,23,43.391,43.391,0,0,0,10.618,77.784a43.9,43.9,0,0,0,5.618,6.039H7.721a3.234,3.234,0,0,0-3.233,3.233c0,39.917,26.8,75,66.981,94.762L45.492,207.271a3.235,3.235,0,0,0-.045,4.571,3.239,3.239,0,0,0,4.571.039L77.734,184.72a172.493,172.493,0,0,0,68.991,14.068,172.273,172.273,0,0,0,68.991-14.068l27.717,27.161a3.23,3.23,0,1,0,4.526-4.61l-25.991-25.46c40.195-19.771,66.981-54.839,66.981-94.762A3.209,3.209,0,0,0,285.73,83.8ZM95.481,26.96,73.81,45.193a16.137,16.137,0,0,1,2.812-12.627,16.5,16.5,0,0,1,2.5-2.7c.019-.013.039-.013.058-.026.045-.032.065-.091.11-.129a16.267,16.267,0,0,1,10.441-3.821A16.447,16.447,0,0,1,95.481,26.96Zm51.244,165.363c-73.459,0-133.334-45.509-135.558-102.068H282.3C280.06,146.814,220.178,192.324,146.726,192.324Z" transform="translate(0 0)" fill="#00b89f"/>
      <g transform="matrix(1, 0, 0, 1, 1.25, 7.65)" filter="url(#Path_850)">
        <path id="Path_850-3" data-name="Path 850" d="M285.73,83.8H27.24a37.2,37.2,0,0,1-11.482-9.937,36.856,36.856,0,0,1,57.05-46.608c-.459.517-1,.944-1.409,1.513a22.61,22.61,0,0,0-2,23.372,3.212,3.212,0,0,0,2.237,1.733,2.884,2.884,0,0,0,.666.078,3.218,3.218,0,0,0,2.082-.763l28.874-24.3a3.235,3.235,0,0,0-.175-5.088A22.2,22.2,0,0,0,77.851,23,43.391,43.391,0,0,0,10.618,77.784a43.9,43.9,0,0,0,5.618,6.039H7.721a3.234,3.234,0,0,0-3.233,3.233c0,39.917,26.8,75,66.981,94.762L45.492,207.271a3.235,3.235,0,0,0-.045,4.571,3.239,3.239,0,0,0,4.571.039L77.734,184.72a172.493,172.493,0,0,0,68.991,14.068,172.273,172.273,0,0,0,68.991-14.068l27.717,27.161a3.23,3.23,0,1,0,4.526-4.61l-25.991-25.46c40.195-19.771,66.981-54.839,66.981-94.762A3.209,3.209,0,0,0,285.73,83.8ZM95.481,26.96,73.81,45.193a16.137,16.137,0,0,1,2.812-12.627,16.5,16.5,0,0,1,2.5-2.7c.019-.013.039-.013.058-.026.045-.032.065-.091.11-.129a16.267,16.267,0,0,1,10.441-3.821A16.447,16.447,0,0,1,95.481,26.96Zm51.244,165.363c-73.459,0-133.334-45.509-135.558-102.068H282.3C280.06,146.814,220.178,192.324,146.726,192.324Z" transform="translate(-1.25 -7.65)" fill="#fff"/>
      </g>
      <path id="Path_850-4" data-name="Path 850" d="M285.73,83.8H27.24a37.2,37.2,0,0,1-11.482-9.937,36.856,36.856,0,0,1,57.05-46.608c-.459.517-1,.944-1.409,1.513a22.61,22.61,0,0,0-2,23.372,3.212,3.212,0,0,0,2.237,1.733,2.884,2.884,0,0,0,.666.078,3.218,3.218,0,0,0,2.082-.763l28.874-24.3a3.235,3.235,0,0,0-.175-5.088A22.2,22.2,0,0,0,77.851,23,43.391,43.391,0,0,0,10.618,77.784a43.9,43.9,0,0,0,5.618,6.039H7.721a3.234,3.234,0,0,0-3.233,3.233c0,39.917,26.8,75,66.981,94.762L45.492,207.271a3.235,3.235,0,0,0-.045,4.571,3.239,3.239,0,0,0,4.571.039L77.734,184.72a172.493,172.493,0,0,0,68.991,14.068,172.273,172.273,0,0,0,68.991-14.068l27.717,27.161a3.23,3.23,0,1,0,4.526-4.61l-25.991-25.46c40.195-19.771,66.981-54.839,66.981-94.762A3.209,3.209,0,0,0,285.73,83.8ZM95.481,26.96,73.81,45.193a16.137,16.137,0,0,1,2.812-12.627,16.5,16.5,0,0,1,2.5-2.7c.019-.013.039-.013.058-.026.045-.032.065-.091.11-.129a16.267,16.267,0,0,1,10.441-3.821A16.447,16.447,0,0,1,95.481,26.96Zm51.244,165.363c-73.459,0-133.334-45.509-135.558-102.068H282.3C280.06,146.814,220.178,192.324,146.726,192.324Z" transform="translate(0 0)" fill="none" stroke="#08a693" stroke-width="1"/>
    </g>
    <path id="Path_851" data-name="Path 851" d="M25.427,18.5a5.082,5.082,0,1,0-5.082,5.075A5.083,5.083,0,0,0,25.427,18.5Zm-6.465,0a1.384,1.384,0,1,1,2.767,0C21.736,20.029,18.962,20.029,18.962,18.5Z" transform="translate(73.629 28.668)" fill="#00b89f"/>
    <path id="Path_852" data-name="Path 852" d="M20.693,25.533a5.082,5.082,0,1,0-5.082-5.082A5.087,5.087,0,0,0,20.693,25.533Zm0-6.465a1.385,1.385,0,0,1,1.384,1.384c0,1.526-2.767,1.526-2.767,0A1.389,1.389,0,0,1,20.693,19.068Z" transform="translate(75.526 39.32)" fill="#00b89f"/>
    <path id="Path_853" data-name="Path 853" d="M17.126,19.178A5.082,5.082,0,1,0,22.208,14.1,5.087,5.087,0,0,0,17.126,19.178Zm5.088-1.384A1.385,1.385,0,0,1,23.6,19.178c0,1.519-2.767,1.519-2.767,0A1.377,1.377,0,0,1,22.214,17.794Z" transform="translate(83.806 32.357)" fill="#00b89f"/>
    <path id="Path_854" data-name="Path 854" d="M21.041,27.484A5.082,5.082,0,1,0,15.959,22.4,5.091,5.091,0,0,0,21.041,27.484Zm0-6.465A1.385,1.385,0,0,1,22.424,22.4c0,1.526-2.767,1.526-2.767,0A1.373,1.373,0,0,1,21.041,21.019Z" transform="translate(77.428 49.983)" fill="#00b89f"/>
    <path id="Path_855" data-name="Path 855" d="M24.071,24.933a5.082,5.082,0,1,0-5.082-5.082A5.095,5.095,0,0,0,24.071,24.933Zm0-6.465a1.385,1.385,0,0,1,1.384,1.384c0,1.526-2.767,1.526-2.767,0A1.385,1.385,0,0,1,24.071,18.468Z" transform="translate(93.988 36.041)" fill="#00b89f"/>
    <path id="Path_856" data-name="Path 856" d="M17.473,21.128a5.082,5.082,0,1,0,5.082-5.082A5.081,5.081,0,0,0,17.473,21.128Zm6.465,0c0,1.519-2.767,1.519-2.767,0a1.384,1.384,0,1,1,2.767,0Z" transform="translate(85.702 43.015)" fill="#00b89f"/>
  </g>
</svg>
