<svg xmlns="http://www.w3.org/2000/svg" width="141.124" height="215.138" viewBox="0 0 141.124 215.138">
  <g id="_7068954_furniture_door_interior_house_front_icon" data-name="7068954_furniture_door_interior_house_front_icon" opacity="0.2">
    <path id="Path_857" data-name="Path 857" d="M291.843,99.56h-135.8a2.668,2.668,0,0,0-2.661,2.668v209.8a2.668,2.668,0,0,0,2.661,2.668h135.8a2.668,2.668,0,0,0,2.661-2.668v-209.8A2.668,2.668,0,0,0,291.843,99.56ZM169.36,309.369V115.54H278.524V309.369Zm119.815,0h-5.322V112.879a2.661,2.661,0,0,0-2.661-2.661h-114.5a2.661,2.661,0,0,0-2.661,2.661v196.49h-5.322V104.889H289.175Z" transform="translate(-153.38 -99.56)" fill="#00ffdc"/>
    <path id="Path_858" data-name="Path 858" d="M306.047,224.8A9.083,9.083,0,0,0,297,233.876v22.107a9.076,9.076,0,1,0,18.146,0V233.876a9.083,9.083,0,0,0-9.1-9.076Zm3.754,31.176a3.747,3.747,0,1,1-7.495,0v-22.1a3.747,3.747,0,1,1,7.495,0Z" transform="translate(-198.244 -138.684)" fill="#00ffdc"/>
  </g>
</svg>
