<svg xmlns="http://www.w3.org/2000/svg" width="259.591" height="259.591" viewBox="0 0 259.591 259.591">
  <g id="_8679613_footprint_line_icon" data-name="8679613_footprint_line_icon" opacity="0.2">
    <path id="Path_452" data-name="Path 452" d="M0,0H259.591V259.591H0Z" fill="none"/>
    <path id="Path_453" data-name="Path 453" d="M8.908,178.258H68.4v13.52a29.745,29.745,0,1,1-59.49,0ZM52.8,134.993l.487-1.428c8.3-22.779,9.7-27.019,9.7-31.021a57.8,57.8,0,0,0-5.711-24.585c-2.618-5.084-4.456-6.565-5.105-6.565-13.845,0-27.041,14.753-27.041,31.151a185.148,185.148,0,0,0,2.455,29.831L28,134.993H52.8Zm-.627-85.232c21.633,0,32.449,31.151,32.449,52.783,0,10.816-5.408,21.633-10.816,37.857L68.4,156.626H8.908c0-10.816-5.408-27.041-5.408-54.081S25.111,49.761,52.173,49.761Zm130.379,86.292-2.347,13.315a29.748,29.748,0,0,1-58.592-10.33l2.358-13.3,58.581,10.319ZM171.2,90.127c1.785-5.408,3.256-9.681,3.277-9.735a177.3,177.3,0,0,0,5.246-21.719c2.845-16.138-7.593-32.957-21.222-35.369-.638-.108-2.7,1.028-6.165,5.57a58.023,58.023,0,0,0-9.9,23.223c-.627,3.569-.53,4.381,2.92,24.477.487,2.769.887,5.257,1.255,7.755l.216,1.493,24.38,4.3Zm-8.934-88.12c26.651,4.694,43.46,33.79,38.766,60.42s-12.839,41.675-14.71,52.329l-58.592-10.33L125.216,87.51c-2.509-16.917-5.949-28.512-4.078-39.155C124.891,27.047,140.953-1.746,162.261,2.007Z" transform="translate(34.357 16.435)" fill="#00b89f"/>
  </g>
</svg>
