<svg xmlns="http://www.w3.org/2000/svg" width="110" height="110" viewBox="0 0 110 110">
  <g id="_icons" transform="translate(-3 -3)">
    <path id="Path_883" data-name="Path 883" d="M3,82.444A30.259,30.259,0,0,0,33.556,113H82.444c16.5,0,29.944-13.444,30.556-29.944v-49.5A30.259,30.259,0,0,0,82.444,3H33.556A30.259,30.259,0,0,0,3,33.556Zm79.444,18.333H33.556A18.006,18.006,0,0,1,15.222,82.444V80l27.5-15.889a19.479,19.479,0,0,1,18.333,0l39.111,22C98.944,94.056,91.611,100.778,82.444,100.778ZM33.556,15.222H82.444a18.006,18.006,0,0,1,18.333,18.333v38.5L67.167,53.111c-9.167-5.5-20.778-4.889-30.556,0L15.222,65.333V33.556A18.006,18.006,0,0,1,33.556,15.222Z" fill="#fff"/>
    <circle id="Ellipse_66" data-name="Ellipse 66" cx="9.637" cy="9.637" r="9.637" transform="translate(69.39 27.335)" fill="#fff"/>
  </g>
</svg>
