<svg xmlns="http://www.w3.org/2000/svg" width="65.666" height="98.914" viewBox="0 0 65.666 98.914"><path d="M36.863,0a32.959,32.959,0,0,0-20.6,58.584V94.756a4.12,4.12,0,0,0,6.592,3.3L36.863,87.547C51.489,98.505,52.148,99.906,55.2,98.423s2.266-1.689,2.266-39.839A32.959,32.959,0,0,0,36.863,0ZM12.144,32.959A24.719,24.719,0,1,1,29.489,56.524,24.719,24.719,0,0,1,12.144,32.959ZM49.223,86.517c-14.667-11-10.094-10.959-24.719,0V63.528a33.906,33.906,0,0,0,24.719,0Z" transform="translate(-4.031 0)" fill="#fff"/><path d="M14.455,22.689,13.22,30.228a2.06,2.06,0,0,0,3.008,2.142l6.468-3.5,6.468,3.5a2.06,2.06,0,0,0,3.007-2.142l-1.236-7.539,5.356-5.356a2.06,2.06,0,0,0-1.236-3.5l-7.333-1.112L24.549,5.88a2.06,2.06,0,0,0-3.708,0l-3.255,6.757-7.251,1.195a2.06,2.06,0,0,0-1.154,3.5Z" transform="translate(10.138 14.719)" fill="#fff"/></svg>