<svg xmlns="http://www.w3.org/2000/svg" width="224.295" height="337.789" viewBox="0 0 224.295 337.789">
  <g id="_01" data-name="01" transform="translate(-7.471 -3.075)" opacity="0.2">
    <path id="Path_449" data-name="Path 449" d="M37.145,303.964A100.724,100.724,0,0,0,75.78,331.755a133.4,133.4,0,0,0,22.232,6.778A108.451,108.451,0,0,0,200.77,305.184,117.534,117.534,0,0,0,226.8,191.853,990.826,990.826,0,0,0,133.666,8.842a13.556,13.556,0,0,0-24.13,4.067,363.311,363.311,0,0,1-45.549,91.37c-7.32,11.658-15.048,23.859-23.317,38.229q-7.592,13.556-16,27.113a108.451,108.451,0,0,0-13.556,86.49A126.617,126.617,0,0,0,37.145,303.964Zm10.71-120.109q8.744-13.827,16.674-28.062c7.863-13.556,15.454-25.757,22.639-37.009A440.04,440.04,0,0,0,125.8,47.478,965.342,965.342,0,0,1,200.77,200.123a89.2,89.2,0,0,1-20.063,86.625,80.254,80.254,0,0,1-77.136,25.215,106.148,106.148,0,0,1-17.759-5.423A73.611,73.611,0,0,1,57.75,286.748a99.775,99.775,0,0,1-20.741-37.822,81.338,81.338,0,0,1,10.845-65.071Zm21.012,35.111a13.556,13.556,0,0,1,13.556-13.556h27.113V178.3a13.556,13.556,0,1,1,27.113,0v27.113h27.113a13.556,13.556,0,1,1,0,27.113H136.648v27.113a13.556,13.556,0,0,1-27.113,0V232.522H82.423A13.556,13.556,0,0,1,68.867,218.966Z" transform="translate(0 0)" fill="#00b89f"/>
  </g>
</svg>
