<svg xmlns="http://www.w3.org/2000/svg" width="263.143" height="383.723" viewBox="0 0 263.143 383.723">
  <g id="Group_697" data-name="Group 697" transform="translate(-535 -542)" opacity="0.2">
    <path id="_5378810_burn_fire_flame_games_hot_icon" data-name="5378810_burn_fire_flame_games_hot_icon" d="M214.244,282.044c32.73-32.715,89.547-99.752,69.182-154.044,0,0,74.263,76.949,53.212,175.869,0,0,46.307-35.036,48.759-92.613,36.686,42.453,38.482,141.708,36.5,164.175-6.175,69.474-56.555,126.292-126.292,126.292A126.292,126.292,0,0,1,169.31,375.431a92.526,92.526,0,0,1,3.679-23.066A158.275,158.275,0,0,1,214.244,282.044Z" transform="translate(370.69 419)" fill="none" stroke="#00b89f" stroke-linecap="round" stroke-linejoin="round" stroke-width="10"/>
    <path id="_5378810_burn_fire_flame_games_hot_icon-2" data-name="5378810_burn_fire_flame_games_hot_icon" d="M198.068,226.588c20.947-20.938,57.31-63.841,44.277-98.588,0,0,47.528,49.247,34.055,112.556,0,0,29.636-22.423,31.206-59.273,23.479,27.17,24.629,90.693,23.358,105.072-3.952,44.464-36.2,80.827-80.827,80.827a80.827,80.827,0,0,1-80.827-80.827,59.22,59.22,0,0,1,2.354-14.762A101.3,101.3,0,0,1,198.068,226.588Z" transform="translate(416.252 553.54)" fill="none" stroke="#00b89f" stroke-linecap="round" stroke-linejoin="round" stroke-width="10"/>
  </g>
</svg>
