<svg xmlns="http://www.w3.org/2000/svg" width="130.39" height="110.017" viewBox="0 0 130.39 110.017">
  <g id="camera" transform="translate(0 -3)">
    <path id="Path_880" data-name="Path 880" d="M40.6,10A32.6,32.6,0,1,0,73.2,42.6,32.594,32.594,0,0,0,40.6,10ZM59.158,58.51a24.444,24.444,0,1,1-2.649-34.468A24.439,24.439,0,0,1,59.158,58.51Z" transform="translate(24.598 21.526)" fill="#fff" fill-rule="evenodd"/>
    <path id="Path_881" data-name="Path 881" d="M28.3,14A16.3,16.3,0,0,0,12,30.3V30.3a2.037,2.037,0,1,0,4.075,0V30.3A12.225,12.225,0,0,1,28.3,18.076,2.037,2.037,0,1,0,28.3,14Z" transform="translate(36.896 33.825)" fill="#fff" fill-rule="evenodd"/>
    <path id="Path_882" data-name="Path 882" d="M120.171,27.619l-17.66-2.946L96.917,10.681A12.174,12.174,0,0,0,85.569,3H44.822A12.182,12.182,0,0,0,33.47,10.685l-5.59,13.988L10.223,27.619A12.178,12.178,0,0,0,0,39.672v61.12a12.239,12.239,0,0,0,12.224,12.224H118.166a12.239,12.239,0,0,0,12.224-12.224V39.672A12.179,12.179,0,0,0,120.171,27.619Zm2.07,73.173a4.071,4.071,0,0,1-4.075,4.075H12.224a4.071,4.071,0,0,1-4.075-4.075V39.672a4.073,4.073,0,0,1,3.406-4.018l22.183-3.7,7.3-18.246a4.087,4.087,0,0,1,3.785-2.563H85.569a4.08,4.08,0,0,1,3.781,2.563l7.3,18.246,22.187,3.7a4.073,4.073,0,0,1,3.406,4.018Z" transform="translate(0 0)" fill="#fff" fill-rule="evenodd"/>
  </g>
</svg>
