<svg xmlns="http://www.w3.org/2000/svg" width="229.409" height="349.724" viewBox="0 0 229.409 349.724">
  <g id="_7068954_furniture_door_interior_house_front_icon" data-name="7068954_furniture_door_interior_house_front_icon" opacity="0.2">
    <path id="Path_857" data-name="Path 857" d="M378.463,99.56H157.706a4.337,4.337,0,0,0-4.326,4.337V444.948a4.337,4.337,0,0,0,4.326,4.337H378.463a4.337,4.337,0,0,0,4.326-4.337V103.9A4.337,4.337,0,0,0,378.463,99.56ZM179.357,440.622V125.537H356.812V440.622Zm194.769,0h-8.651V121.211a4.326,4.326,0,0,0-4.326-4.326H175.02a4.326,4.326,0,0,0-4.326,4.326V440.622h-8.651v-332.4H374.126Z" transform="translate(-153.38 -99.56)" fill="#00ffdc"/>
    <path id="Path_858" data-name="Path 858" d="M311.71,224.8A14.766,14.766,0,0,0,297,239.554V275.49a14.754,14.754,0,1,0,29.5,0V239.554A14.766,14.766,0,0,0,311.71,224.8Zm6.1,50.679a6.092,6.092,0,1,1-12.183,0V239.554a6.092,6.092,0,1,1,12.183,0Z" transform="translate(-136.468 -84.812)" fill="#00ffdc"/>
  </g>
</svg>
