<svg xmlns="http://www.w3.org/2000/svg" width="195.007" height="176.5" viewBox="0 0 195.007 176.5">
  <g id="Layer_2" transform="translate(-27.5 -49.19)" opacity="0.2">
    <g id="Group_688" data-name="Group 688" transform="translate(27.5 49.19)">
      <path id="Path_439" data-name="Path 439" d="M104.051,189.811a28.181,28.181,0,1,0-28.181-28.18A28.212,28.212,0,0,0,104.051,189.811Zm0-42.706a14.526,14.526,0,1,1-14.526,14.526A14.542,14.542,0,0,1,104.051,147.105Z" transform="translate(-55.23 -97.495)" fill="#00b89f"/>
      <path id="Path_440" data-name="Path 440" d="M34.328,225.69h16a6.821,6.821,0,0,0,6.687-5.458l.307-1.511a29.924,29.924,0,0,1,29.213-23.837H163.47a29.924,29.924,0,0,1,29.213,23.837l.307,1.506a6.829,6.829,0,0,0,6.687,5.458h16a6.826,6.826,0,0,0,6.828-6.828V154.722c0-.047,0-.1-.009-.145s0-.094,0-.141l-1.323-31.6a27.363,27.363,0,0,0-19.283-24.976l-57.7-17.7a27.319,27.319,0,0,0-35.328,26.12v41.614H41.155V56.018a6.828,6.828,0,1,0-13.655,0V218.862A6.826,6.826,0,0,0,34.328,225.69Zm174.528-13.655h-3.8a43.463,43.463,0,0,0-41.584-30.8H86.541a43.463,43.463,0,0,0-41.584,30.8h-3.8V161.55h167.7Zm-86.33-105.75a13.658,13.658,0,0,1,17.666-13.062l57.7,17.7a13.681,13.681,0,0,1,9.644,12.49l1.024,24.489H122.526Z" transform="translate(-27.5 -49.19)" fill="#00b89f"/>
    </g>
  </g>
</svg>
