<svg xmlns="http://www.w3.org/2000/svg" width="247" height="248" viewBox="0 0 247 248">
  <g id="Layer_2" data-name="Layer 2" transform="translate(0)">
    <g id="_ÎÓÈ_1" data-name="—ÎÓÈ 1" transform="translate(0 0)">
      <ellipse id="Ellipse_11" data-name="Ellipse 11" cx="123.5" cy="124" rx="123.5" ry="124" fill="#323a43"/>
      <path id="Path_232" data-name="Path 232" d="M23.255,38.68l63.661.484v51.7l-63.661-.484Z" transform="translate(69.812 116.119)" fill="#f9dca4" fill-rule="evenodd"/>
      <path id="Path_233" data-name="Path 233" d="M121.553,90.39a123.932,123.932,0,0,1-103.425.56V48.417H121.549Z" transform="translate(54.42 145.35)" fill="#e6e6e6" fill-rule="evenodd"/>
      <path id="Path_234" data-name="Path 234" d="M46.606,88.553q-4.955.4-10.017.4-3.822,0-7.584-.228l4.122-35.97h9.645Z" transform="translate(87.074 158.373)" fill="#e9573e" fill-rule="evenodd"/>
      <path id="Path_235" data-name="Path 235" d="M78.535,118.218a136.359,136.359,0,0,1-39.048-13.655A124.2,124.2,0,0,1,8.043,79.65l5.139-12.406L68.91,42.383c0,20.859,6.847,53.956,9.625,75.839Z" transform="translate(24.145 127.236)" fill="#677079" fill-rule="evenodd"/>
      <path id="Path_236" data-name="Path 236" d="M86.6,39.3V52.233C67.66,74.352,31.477,71.223,23.365,38.578Z" transform="translate(70.142 115.813)" fill-rule="evenodd" opacity="0.11"/>
      <path id="Path_237" data-name="Path 237" d="M69.555,8.432c85.168,0,51.975,141.136,0,141.136-49.093,0-85.168-141.136,0-141.136Z" transform="translate(55.024 25.313)" fill="#ffe8be" fill-rule="evenodd"/>
      <path id="Path_238" data-name="Path 238" d="M22.6,24.049C10.318,29.408,20.763,54.809,28.5,54.7A127.954,127.954,0,0,1,22.6,24.045Z" transform="translate(50.892 72.184)" fill="#f9dca4" fill-rule="evenodd"/>
      <path id="Path_239" data-name="Path 239" d="M48.556,24.045C60.842,29.4,50.4,54.809,42.669,54.693a128.035,128.035,0,0,0,5.887-30.648Z" transform="translate(128.094 72.184)" fill="#f9dca4" fill-rule="evenodd"/>
      <path id="Path_240" data-name="Path 240" d="M33.851,33.874C20.509,47.713,25.2,86.021,25.2,86.021L21,84.04c-26.229-101.628,126.6-101.632,100.223,0l-4.2,1.981s4.7-38.308-8.644-52.147c-16.484,15.988-58.134,15.9-74.526,0Z" transform="translate(53.917 23.467)" fill="#464449" fill-rule="evenodd"/>
      <path id="Path_241" data-name="Path 241" d="M36.767,117.865a123.515,123.515,0,0,0,69.668-40.093l-4.362-10.529L46.348,42.382C46.348,63.241,39.544,95.981,36.767,117.865Z" transform="translate(110.375 127.233)" fill="#677079" fill-rule="evenodd"/>
      <path id="Path_242" data-name="Path 242" d="M62.956,41.98,31.236,67.853,57.541,91.517s7.012-38.836,5.415-49.537Z" transform="translate(93.771 126.026)" fill="#fff" fill-rule="evenodd"/>
      <path id="Path_243" data-name="Path 243" d="M23.433,41.98,55.406,67.853,28.812,91.517S21.825,52.681,23.433,41.98Z" transform="translate(69.625 126.026)" fill="#fff" fill-rule="evenodd"/>
      <path id="Path_244" data-name="Path 244" d="M28.109,59.687,40.663,48.409,53.218,59.687,40.663,70.961,28.109,59.687Z" transform="translate(84.384 145.326)" fill="#e9573e" fill-rule="evenodd"/>
      <path id="Path_245" data-name="Path 245" d="M48.7,121.633a123.32,123.32,0,0,1-15.124-3.522q-.233-.18-.456-.372L18.972,92.166,37.146,79.119H18.128L22.2,51.7,38.646,41.3C39.359,70.8,45.686,103.956,48.7,121.633Z" transform="translate(54.42 123.985)" fill="#434955" fill-rule="evenodd"/>
      <path id="Path_246" data-name="Path 246" d="M36.645,121.2c2.353-.392,4.682-.936,6.992-1.537,2.729-.708,5.443-1.509,8.14-2.317l.536-.172L66.364,91.906,48.191,78.931H67.209l-4.07-27.282L46.69,41.3c-.712,29.343-7.036,62.316-10.045,79.9Z" transform="translate(110.009 123.985)" fill="#434955" fill-rule="evenodd"/>
    </g>
  </g>
</svg>
