<svg xmlns="http://www.w3.org/2000/svg" width="38.43" height="38.43" viewBox="0 0 38.43 38.43">
  <g id="_3994382_access_close_exit_logout_sign_out_icon" data-name="3994382_access_close_exit_logout_sign out_icon" transform="translate(0)">
    <path id="Path_27" data-name="Path 27" d="M8.2,36.01H26.42a2.4,2.4,0,1,0,0-4.8H8.2L11.306,28.1a2.4,2.4,0,1,0-3.4-3.4L.7,31.91a2.4,2.4,0,0,0,0,3.4l7.206,7.206a2.4,2.4,0,1,0,3.4-3.4Z" transform="translate(0 -14.393)" fill="#00b89f"/>
    <path id="Path_28" data-name="Path 28" d="M57.617,0H38.4A2.4,2.4,0,0,0,36,2.4v4.8a2.4,2.4,0,0,0,4.8,0V4.8H55.215V33.626H40.8v-2.4a2.4,2.4,0,0,0-4.8,0v4.8a2.4,2.4,0,0,0,2.4,2.4H57.617a2.4,2.4,0,0,0,2.4-2.4V2.4a2.4,2.4,0,0,0-2.4-2.4Z" transform="translate(-21.589 0)" fill="#00b89f"/>
  </g>
</svg>
