<svg xmlns="http://www.w3.org/2000/svg" width="312.863" height="312.863" viewBox="0 0 312.863 312.863">
  <path id="_8675105_ic_fluent_pill_regular_icon" data-name="8675105_ic_fluent_pill_regular_icon" d="M135.392,212.964a11.778,11.778,0,0,1,0,16.658L103.98,261.034a33.99,33.99,0,0,1-47.965.105,11.779,11.779,0,1,1,16.553-16.763,10.432,10.432,0,0,0,14.754,0l31.412-31.412A11.779,11.779,0,0,1,135.392,212.964Zm43.544-187.6A79.648,79.648,0,1,1,291.575,138.007L138.007,291.575A79.648,79.648,0,0,1,25.368,178.936Zm95.98,16.659a56.088,56.088,0,0,0-79.321,0L127.14,110.482,206.462,189.8l68.454-68.454A56.087,56.087,0,0,0,274.916,42.027ZM189.8,206.462,110.482,127.14,42.027,195.6a56.089,56.089,0,0,0,79.322,79.321Z" transform="translate(-2.04 -2.04)" fill="#00b89f" opacity="0.1"/>
</svg>
