<svg xmlns="http://www.w3.org/2000/svg" width="510" height="461.599" viewBox="0 0 510 461.599">
  <g id="Layer_2" transform="translate(-27.5 -49.19)" opacity="0.1">
    <g id="Group_688" data-name="Group 688" transform="translate(27.5 49.19)">
      <path id="Path_439" data-name="Path 439" d="M149.571,280.851a73.7,73.7,0,1,0-73.7-73.7A73.783,73.783,0,0,0,149.571,280.851Zm0-111.689a37.989,37.989,0,1,1-37.989,37.989A38.031,38.031,0,0,1,149.571,169.162Z" transform="translate(-21.889 -39.416)" fill="#00b89f"/>
      <path id="Path_440" data-name="Path 440" d="M45.356,510.789h41.85a17.84,17.84,0,0,0,17.488-14.274l.8-3.951a78.26,78.26,0,0,1,76.4-62.34H383.1a78.26,78.26,0,0,1,76.4,62.34l.8,3.939a17.86,17.86,0,0,0,17.488,14.274h41.85A17.851,17.851,0,0,0,537.5,492.922V325.188c0-.123-.011-.257-.022-.379s.011-.246,0-.368l-3.46-82.651a71.564,71.564,0,0,0-50.432-65.319l-150.905-46.28a71.448,71.448,0,0,0-92.394,68.31V307.332H63.212V67.046a17.856,17.856,0,1,0-35.712,0V492.933A17.851,17.851,0,0,0,45.356,510.789ZM501.8,475.077h-9.944A113.669,113.669,0,0,0,383.1,394.525H181.91A113.669,113.669,0,0,0,73.155,475.077H63.212V343.043H501.8ZM276.022,198.511a35.72,35.72,0,0,1,46.2-34.161L473.129,210.63A35.781,35.781,0,0,1,498.351,243.3l2.678,64.047H276.022Z" transform="translate(-27.5 -49.19)" fill="#00b89f"/>
    </g>
  </g>
</svg>
