<svg xmlns="http://www.w3.org/2000/svg" width="23.086" height="39.318" viewBox="0 0 23.086 39.318"><g transform="translate(-372.155 -570.829)"><g transform="translate(372.155 570.829)"><path d="M19.693,5.986V2.762A2.739,2.739,0,0,0,16.924,0H6.258A2.821,2.821,0,0,0,3.393,2.762V5.986A4.091,4.091,0,0,0,0,10V25.278a4.091,4.091,0,0,0,3.393,4.011v7.162a2.911,2.911,0,0,0,2.865,2.867H16.924a2.829,2.829,0,0,0,2.77-2.867V29.289a4.091,4.091,0,0,0,3.393-4.011V10A4.091,4.091,0,0,0,19.693,5.986Zm-3.049-2.96V5.984H6.442V3.026ZM6.442,36.292v-6.9h10.2v6.9ZM20.06,25.278a1.029,1.029,0,0,1-.957,1.087H4.079a1.109,1.109,0,0,1-1.053-1.087V10A1.022,1.022,0,0,1,4.079,9.01H19.1A.941.941,0,0,1,20.06,10Z" fill="#00b89f"/></g><circle cx="7.5" cy="7.5" r="7.5" transform="translate(376 581)" fill="#b54141"/><g transform="translate(5 9.657)"><text transform="translate(372 581.342)" fill="#fff" font-size="6" font-family="Montserrat-Bold, Montserrat" font-weight="700"><tspan x="0" y="0">SOS</tspan></text></g></g></svg>