<svg xmlns="http://www.w3.org/2000/svg" width="408.267" height="408.267" viewBox="0 0 408.267 408.267">
  <g id="_8679613_footprint_line_icon" data-name="8679613_footprint_line_icon" opacity="0.2">
    <path id="Path_452" data-name="Path 452" d="M0,0H408.267V408.267H0Z" fill="none"/>
    <path id="Path_453" data-name="Path 453" d="M12.006,279.394h93.561v21.264a46.781,46.781,0,1,1-93.561,0Zm69.031-68.044L81.8,209.1c13.048-35.825,15.259-42.494,15.259-48.788,0-12.758-3.453-27.949-8.982-38.666-4.117-8-7.009-10.326-8.029-10.326-21.774,0-42.528,23.2-42.528,48.992a291.188,291.188,0,0,0,3.862,46.917l.646,4.117H81.037ZM80.05,77.3c34.022,0,51.033,48.992,51.033,83.014,0,17.011-8.506,34.022-17.011,59.539l-8.506,25.517H12.006c0-17.011-8.506-42.528-8.506-85.056S37.488,77.3,80.05,77.3ZM285.1,213.016l-3.691,20.941a46.785,46.785,0,1,1-92.149-16.246l3.708-20.924L285.1,213.016ZM267.24,140.787c2.807-8.506,5.12-15.225,5.154-15.31a278.852,278.852,0,0,0,8.25-34.158c4.474-25.381-11.942-51.833-33.376-55.626-1-.17-4.253,1.616-9.7,8.761-7.315,9.611-13.337,23.986-15.565,36.523-.987,5.614-.834,6.89,4.593,38.5.766,4.355,1.395,8.267,1.973,12.2l.34,2.348,38.343,6.77ZM253.189,2.2C295.1,9.58,321.54,55.34,314.157,97.222c-7.383,41.9-20.192,65.544-23.135,82.3l-92.149-16.246-3.947-26.605c-3.947-26.605-9.356-44.841-6.413-61.58C194.416,41.578,219.677-3.705,253.189,2.2Z" transform="translate(56.039 26.806)" fill="#00b89f"/>
  </g>
</svg>
